<?xml version="1.0" encoding="utf-8" ?><svg xmlns="http://www.w3.org/2000/svg" xmlns:xlink="http://www.w3.org/1999/xlink" width="1024" height="1024" viewBox="0 0 1024 1024"><path fill="#019DB4" d="M479.053 0L547.282 0C551.334 4.40098 556.065 0.811379 561.151 1.35795C564.57 1.72535 568.335 3.68637 571.864 4.06705C584.362 5.38416 596.186 7.41914 608.509 9.85625C702.181 27.9121 788.944 71.7818 859.014 136.518C867.905 144.749 876.772 154.533 885.591 162.99C889.539 166.777 894.414 173.309 898.23 177.633C957.021 244.789 997.039 326.277 1014.24 413.86C1017.08 428.393 1018.73 442.888 1020.85 457.526C1021.78 463.962 1020.33 471.638 1024 477.072L1024 545.471C1021.71 549.604 1021.72 562.253 1021.15 567.63C1017.81 599.057 1011.79 628.196 1002.79 658.557C956.674 810.901 842.635 933.319 693.936 990.101C659.122 1003.43 621.722 1012.32 584.94 1018.48C568.584 1021.22 550.76 1020.35 534.356 1024L484.17 1024C472.726 1020.86 460.2 1020.69 448.371 1019.2C335.395 1004.92 231.724 952.796 150.826 873C140.756 863.067 133.522 854.849 124.342 844.088C82.8854 795.851 50.6572 740.399 29.2668 680.501C16.4911 644.194 3.40641 588.396 2.85553 550.081L0 545.49L0 478.94C0.806841 477.774 2.69242 475.116 2.76341 473.811C3.59461 458.533 5.71195 443.113 8.29826 428.034C40.4995 234.948 180.065 77.1688 367.777 21.6422C387.284 15.8154 407.667 10.8354 427.757 7.43161C439.473 5.44673 451.924 4.96622 463.721 2.79841C469.319 1.76964 473.189 4.21269 478.544 0.372388L479.053 0Z"/><path fill="white" d="M507.705 36.4343C770.33 33.7248 985.442 244.394 988.215 507.018C990.987 769.641 780.37 984.805 517.746 987.64C255.034 990.476 39.7822 779.772 37.0089 517.059C34.2356 254.346 244.992 39.1446 507.705 36.4343Z"/><path fill="#019DB4" d="M459.707 340.857C460.51 330.9 458.797 320.106 465.142 311.391C468.603 306.636 475.677 304.883 480.261 309.058C488.817 316.849 495.672 325.475 504.449 333.205C519.312 346.294 536.488 356.461 551.751 368.834C527.377 388.447 501.945 406.921 477.161 426.015C471.334 430.504 465.066 435.028 459.811 440.173C438.294 423.258 410.273 407.639 386.119 394.622C372.981 387.542 355.148 377.912 341.535 372.009C344.701 375.672 349.431 379.84 353.016 383.228L372.518 401.673L427.72 453.307C438.531 463.381 450.341 474.066 460.683 484.509C480.326 467.283 502.139 445.105 521.53 426.904L630.368 326.697L646.974 333.228C641.953 339.18 636.013 345.311 630.746 351.152C617.318 366.132 603.775 381.008 590.119 395.78L470.927 527.412C433.586 527.642 342.382 529.564 311.951 513.521C304.267 509.47 297.688 503.949 295.203 495.3C292.102 484.508 297.236 474.658 302.222 465.418C314.582 476.328 328.265 481.544 344.236 484.911C372.785 490.93 403.418 493.546 432.574 493.771C427.163 485.433 420.987 477.802 415.666 469.063C392.141 467.696 327.012 465.719 311.744 445.681C310.21 431.959 310.406 418.099 312.327 404.427C314.153 391.566 325.789 335.733 334.593 329.737C336.201 328.642 338.37 328.469 340.261 328.512C352.944 328.801 360.738 346.541 369.188 354.714C375.012 360.347 381.678 364.392 389.726 365.841C413.81 370.178 440.587 354.035 459.707 340.857Z"/><path fill="#019DB4" d="M601.901 401.804C613.187 405.616 624.485 409.397 636.148 411.888C659.189 416.811 694.791 417.358 711.213 435.449C719.172 444.216 723.914 456.96 723.295 468.817C722.732 479.609 717.26 489.238 709.324 496.384C674.463 527.777 586.897 528.046 541.618 528.038C525.216 528.036 508.696 528.365 492.311 527.59L511.092 504.92L552.912 506.426C583.562 506.533 615.778 505.34 646.4 500.271C666.459 496.224 691.996 492.487 706.19 476.463C708.64 473.697 713.733 459.578 709.675 457.152C708.333 458.522 707.217 460.106 705.765 461.36C675.999 487.056 571.007 484.391 530.81 482.429C538.442 472.945 548.86 461.717 557.024 452.412C571.842 435.418 586.801 418.548 601.901 401.804Z"/><path fill="#019DB4" d="M269.849 601.751L291.275 601.883L328.509 648.331C328.976 633.791 328.553 616.667 328.59 601.963L353.666 601.931C353.67 610.292 354.541 689.949 353.366 691.517L332.679 691.533C320.037 676.682 307.259 659.797 294.836 644.465L294.897 691.505L269.542 691.508C269.919 670.49 269.401 649.077 269.514 628.047C269.536 623.928 269.14 604.771 269.849 601.751Z"/><path fill="#019DB4" d="M486.428 601.638C494.951 601.801 503.475 601.878 511.999 601.868C514.983 610.094 522.047 624.809 525.711 633.027L551.567 691.5L524.304 691.508L517.983 674.523L511.847 674.461C501.193 674.517 490.539 674.497 479.885 674.403C477.732 680.151 475.452 685.851 473.048 691.499C464.228 691.604 455.233 691.485 446.399 691.456C460.168 661.709 473.512 631.766 486.428 601.638Z"/><path fill="white" d="M498.52 627.273C500.591 629.881 507.625 650.508 509.58 655.361L498.894 655.387L488.094 655.452L498.52 627.273Z"/><path fill="#019DB4" d="M646.01 601.793L646.229 602.038C646.059 602.616 614.484 637.201 610.82 641.314C623.504 657.216 635.718 675.336 648.444 691.506L618.629 691.472C609.897 680.954 601.889 669.272 593.104 658.549C590.199 661.596 587.314 664.662 584.452 667.748L584.485 683.25L584.476 691.468C575.873 691.565 567.124 691.488 558.507 691.495L558.398 601.874L584.13 601.849C584.532 613.991 583.926 626.406 584.447 638.723C594.346 627.148 607.436 613.386 617.884 601.84C627.259 601.94 636.635 601.924 646.01 601.793Z"/><path fill="#019DB4" d="M654.002 601.962L725.497 602.045L725.55 622.12L679.861 622.092C679.763 626.932 679.895 632 679.948 636.857C693.251 636.984 706.556 637.024 719.86 636.978C720.045 643.164 719.985 649.731 720.028 655.948L681.875 655.926C680.264 656.026 680.863 655.682 679.845 656.603C679.08 660.048 679.484 667.704 679.576 671.6C695.329 671.75 711.082 671.82 726.836 671.811C727.04 678.217 726.937 685.034 726.932 691.474L654.111 691.509L654.002 601.962Z"/><path fill="#019DB4" d="M370.784 601.828L441.835 601.949C441.886 608.616 441.879 615.283 441.816 621.95L395.878 621.964C395.818 626.937 395.824 631.91 395.897 636.883L436.358 636.966L436.474 655.938C423.856 656.065 411.012 655.933 398.375 655.924L396.785 656.089C395.305 658.032 395.948 668.354 395.998 671.617C411.804 671.825 427.612 671.827 443.418 671.623C443.575 678.156 443.399 684.909 443.313 691.462L371.014 691.522C371.114 661.623 371.037 631.725 370.784 601.828Z"/><path fill="#019DB4" d="M219.8 600.226C231.733 599.668 244.811 601.679 255.453 607.294C253.312 613.945 251.099 620.572 248.812 627.174C241.568 623.764 233.088 620.838 225.078 620.487C220.17 620.272 214.155 620.644 210.619 624.273C209.59 625.33 207.682 627.27 208.101 628.64C210.413 636.197 230.88 637.5 237.828 640.323C243.48 642.121 248.29 644.054 252.81 648.095C262.777 657.003 259.901 675.014 250.864 683.655C241.469 692.639 227.522 693.672 215.067 693.511C203.38 692.973 192.02 689.481 182.049 683.362C184.91 677.971 187.985 670.104 190.207 664.409C200.834 671.142 214.744 675.676 227.503 672.672C230.64 671.934 234.093 669.24 233.385 665.542C232.071 658.678 221.171 658.112 215.807 656.561C202.446 653.79 184.88 649.316 183.773 632.73C182.254 609.976 200.136 601.569 219.8 600.226Z"/><path fill="#019DB4" d="M732.485 601.916L814.494 601.886L814.493 622.52L785.982 622.5L785.965 662.75L785.982 691.484L760.506 691.455L760.333 649.427C760.334 640.673 760.612 631.232 760.211 622.554C750.957 622.445 741.702 622.412 732.447 622.454L732.485 601.916Z"/><path fill="#F3703A" d="M630.368 326.697C638.325 320.031 672.302 296.377 680.921 292.564C674.873 301.565 666.059 311.33 658.955 319.727C655.979 323.245 650.112 330.146 646.974 333.228L630.368 326.697Z"/></svg>